<svg xmlns="http://www.w3.org/2000/svg" xmlns:ev="http://www.w3.org/2001/xml-events" xmlns:xlink="http://www.w3.org/1999/xlink" width="1122.518" height="793.701" class="st24" color-interpolation-filters="sRGB" viewBox="0 0 841.89 595.276" xml:space="preserve"><style type="text/css">.st1{fill:#fff;stroke:#febf01;stroke-linecap:round;stroke-linejoin:round;stroke-width:2}.st2{fill:#8d6b01;font-family:Calibri;font-size:.666664em}.st3{fill:#ec7d31;stroke:#fff;stroke-linecap:round;stroke-linejoin:round;stroke-width:1}.st4{fill:#fff;font-family:Calibri;font-size:.666664em}.st5{font-size:1em}.st6,.st7{stroke:#4f4640}.st6{marker-end:url(#mrkr4-18);stroke-linecap:round;stroke-linejoin:round;stroke-width:1}.st7{fill:#4f4640;fill-opacity:1;stroke-opacity:1;stroke-width:.28409090909091}.st8,.st9{stroke:#00b050}.st8{marker-end:url(#mrkr4-28);stroke-linecap:round;stroke-linejoin:round;stroke-width:1}.st9{fill:#00b050;fill-opacity:1;stroke-opacity:1;stroke-width:.28409090909091}.st10{fill:#fff;stroke:none;stroke-linecap:butt;stroke-width:7.2}.st11{fill:#3e5f28;font-family:Calibri;font-size:.666664em}.st12{fill:#fff;stroke:#a5a5a5;stroke-linecap:round;stroke-linejoin:round;stroke-width:2}.st13{fill:#5c5c5c;font-family:Calibri;font-size:.666664em}.st14,.st15{stroke-linecap:round;stroke-linejoin:round;stroke-width:1}.st14{fill:#5b9ad4;stroke:#fff}.st15{marker-end:url(#mrkr4-63);stroke:red}.st16{fill:red;fill-opacity:1;stroke:red;stroke-opacity:1;stroke-width:.28409090909091}.st17{fill:#69310a;font-family:Calibri;font-size:.666664em}.st18{fill:none;stroke:none;stroke-linecap:round;stroke-linejoin:round;stroke-width:2}.st19{fill:#5c5c5c;font-family:Calibri;font-size:1.33333em;font-weight:700}.st20,.st21{stroke:#a5a5a5}.st20{marker-end:url(#mrkr4-95);stroke-linecap:round;stroke-linejoin:round;stroke-width:1}.st21{fill:#a5a5a5;fill-opacity:1;stroke-opacity:1;stroke-width:.28409090909091}.st22{fill:#5b9ad4}.st23{stroke:#fff;stroke-linecap:round;stroke-linejoin:round;stroke-width:1}.st24{fill:none;fill-rule:evenodd;font-size:12px;overflow:visible;stroke-linecap:square;stroke-miterlimit:3}</style><defs id="Markers"><g id="lend4"><path style="stroke:none" d="M 2 1 L 0 0 L 2 -1 L 2 1"/></g><marker id="mrkr4-18" class="st7" markerUnits="strokeWidth" orient="auto" overflow="visible" refX="-7.04"><use transform="scale(-3.52,-3.52)" xlink:href="#lend4"/></marker><marker id="mrkr4-28" class="st9" markerUnits="strokeWidth" orient="auto" overflow="visible" refX="-7.04"><use transform="scale(-3.52,-3.52)" xlink:href="#lend4"/></marker><marker id="mrkr4-63" class="st16" markerUnits="strokeWidth" orient="auto" overflow="visible" refX="-7.04"><use transform="scale(-3.52,-3.52)" xlink:href="#lend4"/></marker><marker id="mrkr4-95" class="st21" markerUnits="strokeWidth" orient="auto" overflow="visible" refX="-7.04"><use transform="scale(-3.52,-3.52)" xlink:href="#lend4"/></marker></defs><g><title>Page-1</title><g id="shape1-1" transform="translate(80.7874,-481.89)"><title>Start/End</title><desc>Start</desc><path d="M14.17 595.28 L56.69 595.28 A14.1732 14.1732 -180 0 0 56.69 566.93 L14.17 566.93 A14.1732 14.1732 -180 1 0 14.17 595.28 Z" class="st1"/><text x="27.61" y="583.5" class="st2">Start</text></g><g id="shape2-4" transform="translate(602.362,-481.89)"><title>Start/End.2</title><desc>End</desc><path d="M14.17 595.28 L56.69 595.28 A14.1732 14.1732 -180 0 0 56.69 566.93 L14.17 566.93 A14.1732 14.1732 -180 1 0 14.17 595.28 Z" class="st1"/><text x="29.28" y="583.5" class="st2">End</text></g><g id="shape3-7" transform="translate(65.9055,-411.024)"><title>Data</title><desc>i = count(array)-1 Key = nilai dicari IndexBAwah = 0, IndexAt...</desc><path d="M-10.63 595.28 L90 595.28 L111.26 552.76 L10.63 552.76 L-10.63 595.28 Z" class="st3"/><text x="22.14" y="562.02" class="st4">i = count(array)-1<tspan x="24.02" class="st5" dy="1.2em">Key </tspan>= nilai dicari<tspan x="23.19" class="st5" dy="1.2em">IndexBAwah </tspan>= 0,<tspan x="29.53" class="st5" dy="1.2em">IndexAtas </tspan>= i</text></g><g id="shape5-13" transform="translate(109.134,-411.024)"><title>Dynamic connector</title><path d="M7.09 595.28 L7.09 631.87" class="st6"/></g><g id="shape4-19" transform="translate(80.7874,-324.865)"><title>Decision</title><desc>Key on array range</desc><path d="M0 574.02 L35.43 552.76 L70.87 574.02 L35.43 595.28 L0 574.02 Z" class="st1"/><text x="15.1" y="571.62" class="st2">Key on array <tspan x="26.15" class="st5" dy="1.2em">range</tspan></text></g><g id="shape7-23" transform="translate(109.134,-324.865)"><title>Dynamic connector.7</title><desc>Ya</desc><path d="M7.09 595.28 L7.09 808.07" class="st8"/><rect width="7.731" height="9.6" x="3.221" y="700.393" class="st10"/><text x="3.22" y="707.59" class="st11">Ya</text></g><g id="shape6-31" transform="translate(42.5197,-36.7012)"><title>Data.6</title><desc>CursorAtas = IndexAtas – (IndexAtas – IndexBawah)/3 CursorBaw...</desc><path d="M-17.08 595.28 L130.32 595.28 L164.48 526.95 L17.08 526.95 L-17.08 595.28 Z" class="st3"/><text x="33.1" y="544.31" class="st4">CursorAtas = IndexAtas – <tspan x="27.93" class="st5" dy="1.2em">(</tspan>IndexAtas – IndexBawah)/3<tspan x="27.35" class="st5" dy="2.4em">CursorBawah </tspan>= IndexBwah + <tspan x="27.03" class="st5" dy="1.2em">(</tspan>Index Atas – IndexBawah)/3</text></g><g id="shape11-37" transform="translate(189.921,-63.7795)"><title>Dynamic connector.11</title><path d="M0 588.19 L341.62 588.19" class="st6"/></g><g id="shape10-42" transform="translate(538.583,-36.7012)"><title>Decision.10</title><desc>CursorAtas = Key atau CursorBawah = Key</desc><path d="M0 561.11 L46.06 526.95 L92.13 561.11 L46.06 595.28 L0 561.11 Z" class="st1"/><text x="18.55" y="553.91" class="st2">CursorAtas = Key<tspan x="38.79" class="st5" dy="1.2em">atau</tspan><tspan x="14.72" class="st5" dy="1.2em">CursorBawah </tspan>= Key</text></g><g id="shape29-47" transform="translate(226.772,-324.865)"><title>Process.29</title><desc>Hasil = Null</desc><rect width="70.866" height="42.52" x="0" y="552.756" class="st12"/><text x="17.3" y="576.42" class="st13">Hasil = Null</text></g><g id="shape34-50" transform="translate(311.811,-409.905)"><title>Custom 3</title><desc>Return Hasil</desc><path d="M0 595.28 L70.87 595.28 L70.87 552.76 L17.01 552.76 L0 569.76 L0 595.28 Z" class="st14"/><text x="15.62" y="576.42" class="st4">Return Hasil</text></g><g id="shape38-53" transform="translate(109.134,-481.89)"><title>Dynamic connector.38</title><path d="M7.09 595.28 L7.09 616.58" class="st6"/></g><g id="shape43-58" transform="translate(151.654,-339.039)"><title>Dynamic connector.43</title><desc>Tidak</desc><path d="M0 588.19 L68.08 588.19" class="st15"/><rect width="17.406" height="9.6" x="28.856" y="583.389" class="st10"/><text x="28.86" y="590.59" class="st17">Tidak</text></g><g id="shape44-66" transform="translate(262.205,-367.385)"><title>Dynamic connector.44</title><path d="M0 595.28 L0 531.5 L42.57 531.5" class="st6"/></g><g id="shape46-71" transform="translate(347.244,-452.424)"><title>Dynamic connector.46</title><path d="M0 595.28 L0 551.64 L248.08 551.64" class="st6"/></g><g id="shape47-76" transform="translate(77.9528,-538.583)"><title>Sheet.47</title><desc>Diagram Alur Algoritma Pencarian Ternary (TernarySearch)</desc><rect width="559.395" height="28.346" x="0" y="566.929" class="st18"/><text x="84.14" y="585.9" class="st19">Diagram Alur Algoritma Pencarian Ternary (TernarySearch)</text></g><g id="shape49-79" transform="translate(659.055,-409.905)"><title>Process</title><desc>Hasil = CursoAtas atau CursorBawah</desc><rect width="70.866" height="42.52" x="0" y="552.756" class="st14"/><text x="7.39" y="571.62" class="st4">Hasil = CursoAtas <tspan x="5.59" class="st5" dy="1.2em">atau CursorBawah</tspan></text></g><g id="shape50-83" transform="translate(630.709,-70.8661)"><title>Dynamic connector.50</title><desc>Ya</desc><path d="M0 595.28 L63.78 595.28 L63.78 263.28" class="st8"/><rect width="7.731" height="9.6" x="59.914" y="452.846" class="st10"/><text x="59.91" y="460.05" class="st13">Ya</text></g><g id="shape51-90" transform="translate(659.055,-424.078)"><title>Dynamic connector.51</title><path d="M0 588.19 L-269.34 588.19" class="st20"/></g><g id="shape52-96" transform="translate(527.953,-135.019)"><title>Decision.52</title><desc>CursoBawah.value &gt; Key</desc><path d="M0 567.64 L56.69 540 L113.39 567.64 L56.69 595.28 L0 567.64 Z" class="st1"/><text x="17" y="570.04" class="st2">CursoBawah.value &gt; Key</text></g><g id="shape55-99" transform="translate(527.953,-220.282)"><title>Decision.55</title><desc>CursoAtas.value &lt; Key</desc><path d="M0 567.64 L56.69 540 L113.39 567.64 L56.69 595.28 L0 567.64 Z" class="st1"/><text x="20.83" y="570.04" class="st2">CursoAtas.value &lt; Key</text></g><g id="shape56-102" transform="translate(403.937,-319.196)"><title>Subprocess</title><desc>IndexBawah = CursorAtas - 1, IndexAtas = CursorBawah + 1</desc><path d="M0 595.28 L70.87 595.28 L70.87 541.42 L0 541.42 L0 595.28 Z" class="st22"/><path d="M0 595.28 L70.87 595.28 L70.87 541.42 L0 541.42 L0 595.28" class="st23"/><path d="M8.5 595.28 L8.5 541.42" class="st23"/><path d="M62.36 595.28 L62.36 541.42" class="st23"/><text x="12.63" y="551.55" class="st4">IndexBawah = <tspan x="11.54" class="st5" dy="1.2em">CursorAtas </tspan>- 1,<tspan x="16.47" class="st5" dy="1.2em">IndexAtas </tspan>= <tspan x="10.87" class="st5" dy="1.2em">CursorBawah </tspan>+ <tspan x="33.41" class="st5" dy="1.2em">1</tspan></text></g><g id="shape57-112" transform="translate(403.937,-226.66)"><title>Subprocess.57</title><desc>indexBawah = CursorAtas + 1</desc><path d="M0 595.28 L70.87 595.28 L70.87 552.76 L0 552.76 L0 595.28 Z" class="st22"/><path d="M0 595.28 L70.87 595.28 L70.87 552.76 L0 552.76 L0 595.28" class="st23"/><path d="M8.5 595.28 L8.5 552.76" class="st23"/><path d="M62.36 595.28 L62.36 552.76" class="st23"/><text x="12.72" y="571.62" class="st4">indexBawah = <tspan x="11.77" class="st5" dy="1.2em">CursorAtas </tspan>+ 1</text></g><g id="shape58-119" transform="translate(403.937,-141.397)"><title>Subprocess.58</title><desc>IndexAtas = CusorBawah - 1</desc><path d="M0 595.28 L70.87 595.28 L70.87 552.76 L0 552.76 L0 595.28 Z" class="st22"/><path d="M0 595.28 L70.87 595.28 L70.87 552.76 L0 552.76 L0 595.28" class="st23"/><path d="M8.5 595.28 L8.5 552.76" class="st23"/><path d="M62.36 595.28 L62.36 552.76" class="st23"/><text x="16.47" y="566.82" class="st4">IndexAtas = <tspan x="13.03" class="st5" dy="1.2em">CusorBawah </tspan>- <tspan x="33.41" class="st5" dy="1.2em">1</tspan></text></g><g id="shape59-127" transform="translate(226.772,-198.425)"><title>Decision.59</title><desc>IndexAtas &gt;= IndexBawah</desc><path d="M0 574.02 L35.43 552.76 L70.87 574.02 L35.43 595.28 L0 574.02 Z" class="st1"/><text x="14.48" y="571.62" class="st2">IndexAtas &gt;= <tspan x="15.53" class="st5" dy="1.2em">IndexBawah</tspan></text></g><g id="shape60-131" transform="translate(255.118,-240.945)"><title>Dynamic connector.60</title><desc>Tidak</desc><path d="M7.09 595.28 L7.09 518.4" class="st15"/><rect width="17.406" height="9.6" x="-1.616" y="548.516" class="st10"/><text x="-1.62" y="555.72" class="st13">Tidak</text></g><g id="shape61-138" transform="translate(403.937,-346.125)"><title>Dynamic connector.61</title><path d="M0 595.28 L-21.26 595.28 L-21.26 721.72 L-99.26 721.72" class="st6"/></g><g id="shape62-143" transform="translate(403.937,-247.92)"><title>Dynamic connector.62</title><path d="M0 595.28 L-21.26 595.28 L-21.26 623.51 L-99.26 623.51" class="st6"/></g><g id="shape63-148" transform="translate(403.937,-162.656)"><title>Dynamic connector.63</title><path d="M0 595.28 L-21.26 595.28 L-21.26 538.25 L-99.26 538.25" class="st6"/></g><g id="shape64-153" transform="translate(226.772,-219.685)"><title>Dynamic connector.64</title><desc>Ya</desc><path d="M0 595.28 L-110.55 595.28 L-110.55 702.89" class="st8"/><rect width="7.731" height="9.6" x="-114.416" y="592.527" class="st10"/><text x="-114.42" y="599.73" class="st13">Ya</text></g><g id="shape65-160" transform="translate(584.646,-275.557)"><title>Dynamic connector.65</title><desc>Tidak</desc><path d="M0 595.28 L0 524.71 L-102.8 524.71" class="st15"/><rect width="17.406" height="9.6" x="-28.34" y="519.908" class="st10"/><text x="-28.34" y="527.11" class="st13">Tidak</text></g><g id="shape66-167" transform="translate(577.559,-190.294)"><title>Dynamic connector.66</title><desc>Tidak</desc><path d="M7.09 595.28 L7.09 572.33" class="st15"/><rect width="17.406" height="9.6" x="-1.616" y="575.482" class="st10"/><text x="-1.62" y="582.68" class="st13">Tidak</text></g><g id="shape67-174" transform="translate(527.953,-240.833)"><title>Dynamic connector.67</title><desc>Ya</desc><path d="M0 588.19 L-46.11 588.19" class="st8"/><rect width="7.731" height="9.6" x="-30.44" y="583.389" class="st10"/><text x="-30.44" y="590.59" class="st13">Ya</text></g><g id="shape68-181" transform="translate(527.953,-155.57)"><title>Dynamic connector.68</title><desc>Ya</desc><path d="M0 588.19 L-46.11 588.19" class="st8"/><rect width="7.731" height="9.6" x="-30.44" y="583.389" class="st10"/><text x="-30.44" y="590.59" class="st13">Ya</text></g><g id="shape69-188" transform="translate(577.559,-105.031)"><title>Dynamic connector.69</title><desc>Tidak</desc><path d="M7.09 595.28 L7.09 572.33" class="st15"/><rect width="17.406" height="9.6" x="-1.616" y="575.482" class="st10"/><text x="-1.62" y="582.68" class="st13">Tidak</text></g></g></svg>